<?xml version="1.0" encoding="UTF-8" standalone="no"?>
<svg
   xmlns:dc="http://purl.org/dc/elements/1.1/"
   xmlns:cc="http://creativecommons.org/ns#"
   xmlns:rdf="http://www.w3.org/1999/02/22-rdf-syntax-ns#"
   xmlns:svg="http://www.w3.org/2000/svg"
   xmlns="http://www.w3.org/2000/svg"
   xmlns:sodipodi="http://sodipodi.sourceforge.net/DTD/sodipodi-0.dtd"
   xmlns:inkscape="http://www.inkscape.org/namespaces/inkscape"
   height="640"
   width="640"
   xml:space="preserve"
   viewBox="0 0 640 640"
   y="0px"
   x="0px"
   id="Layer_1"
   version="1.1"
   inkscape:version="0.91 r13725"
   sodipodi:docname="socials-vk.svg"><sodipodi:namedview
     pagecolor="#ffffff"
     bordercolor="#666666"
     borderopacity="1"
     objecttolerance="10"
     gridtolerance="10"
     guidetolerance="10"
     inkscape:pageopacity="0"
     inkscape:pageshadow="2"
     inkscape:window-width="1920"
     inkscape:window-height="1151"
     id="namedview6"
     showgrid="false"
     fit-margin-top="0"
     fit-margin-left="0"
     fit-margin-right="0"
     fit-margin-bottom="0"
     inkscape:zoom="0.7375"
     inkscape:cx="-166.28785"
     inkscape:cy="338.22891"
     inkscape:window-x="0"
     inkscape:window-y="25"
     inkscape:window-maximized="1"
     inkscape:current-layer="Layer_1" /><metadata
     id="metadata9"><rdf:RDF><cc:Work
         rdf:about=""><dc:format>image/svg+xml</dc:format><dc:type
           rdf:resource="http://purl.org/dc/dcmitype/StillImage" /><dc:title></dc:title></cc:Work></rdf:RDF></metadata><defs
     id="defs7" /><path
     id="XMLID_807_"
     d="m 244.94066,147.6954 c -14.05073,0 -21.0995,5.46064 -28.59379,14.23342 -4.3149,5.08662 -5.64104,8.40328 3.2705,10.09181 17.46356,3.31187 27.32125,14.64121 29.91606,32.14261 4.22659,28.04262 3.90882,56.13601 1.49902,84.27745 -0.72756,8.17978 -2.1404,16.40572 -5.36816,24.043 -5.08662,12.0447 -13.31939,14.49861 -24.13186,7.09473 -9.7737,-6.68682 -16.63721,-16.18718 -23.3682,-25.68752 -25.27534,-35.68408 -45.41095,-74.18195 -61.86727,-114.64565 -4.77329,-11.6788 -12.95715,-18.76938 -25.31937,-18.95022 -30.452386,-0.50676 -60.864736,-0.54889 -91.281372,0.0421 -18.3172746,0.31538 -23.7720421,9.22672 -16.3134994,25.82812 33.1355274,73.68543 70.0036104,145.36286 118.1466414,210.59303 24.72653,33.4993 53.13511,63.08943 89.76965,84.04991 41.55293,23.77607 86.28264,30.90725 133.41424,28.6846 22.05391,-1.00512 28.69067,-6.77739 29.68951,-28.73246 0.72756,-15.04746 2.40736,-29.99813 9.81543,-43.50005 7.2735,-13.27482 18.32176,-15.80478 31.04984,-7.54298 6.363,4.13196 11.68866,9.35952 16.77738,14.91506 12.41268,13.59232 24.36746,27.58675 37.2764,40.73541 16.1304,16.44156 35.31405,26.12252 59.36144,24.12697 l 93.23642,0.0421 c 14.99912,-0.99882 22.81749,-19.40625 14.18558,-36.13383 -6.09176,-11.76713 -14.05477,-22.23058 -22.46584,-32.37016 -19.04067,-22.81722 -41.4482,-42.31892 -62.67784,-63.04597 -19.14156,-18.67053 -20.36516,-29.50536 -4.95605,-51.00202 16.77172,-23.54057 34.8599,-46.14125 51.77252,-69.54304 15.82127,-21.91932 32.00194,-43.73838 40.3184,-69.92002 5.27797,-16.68763 0.5951,-24.03885 -16.49417,-26.95119 -2.91229,-0.49838 -5.95496,-0.542 -8.96191,-0.542 l -101.41418,-0.0908 c -12.49681,-0.24182 -19.41294,5.21731 -23.82034,16.31153 -5.94876,14.95074 -12.08671,29.91411 -19.22563,44.32233 -16.08624,32.7675 -34.09227,64.41181 -59.32135,91.18854 -5.58917,5.9067 -11.72967,13.35929 -21.04497,10.31447 -11.63885,-4.27705 -15.04706,-23.45226 -14.86622,-29.9141 l -0.0908,-117.04701 c -2.271,-16.69183 -5.9552,-24.14399 -22.54398,-27.41801 l -105.3722,0 z"
     style="clip-rule:evenodd;fill:#000000;fill-rule:evenodd"
     inkscape:connector-curvature="0" /></svg>