<?xml version="1.0" encoding="UTF-8" standalone="no"?>
<svg
   xmlns:dc="http://purl.org/dc/elements/1.1/"
   xmlns:cc="http://creativecommons.org/ns#"
   xmlns:rdf="http://www.w3.org/1999/02/22-rdf-syntax-ns#"
   xmlns:svg="http://www.w3.org/2000/svg"
   xmlns="http://www.w3.org/2000/svg"
   xmlns:sodipodi="http://sodipodi.sourceforge.net/DTD/sodipodi-0.dtd"
   xmlns:inkscape="http://www.inkscape.org/namespaces/inkscape"
   xml:space="preserve"
   viewBox="0 0 640 640"
   height="640"
   width="640"
   id="Layer_1"
   version="1.1"
   inkscape:version="0.91 r13725"
   sodipodi:docname="socials-insta.svg"><sodipodi:namedview
     pagecolor="#ffffff"
     bordercolor="#666666"
     borderopacity="1"
     objecttolerance="10"
     gridtolerance="10"
     guidetolerance="10"
     id="namedview6"
     showgrid="false"
     fit-margin-top="0"
     fit-margin-left="0"
     fit-margin-right="0"
     fit-margin-bottom="0"
     inkscape:zoom="0.36875"
     inkscape:cx="13.559322"
     inkscape:cy="-114.09498"
     inkscape:window-width="1920"
     inkscape:window-height="1151"
     inkscape:window-x="0"
     inkscape:window-y="25"
     inkscape:window-maximized="1"
     inkscape:current-layer="Layer_1" /><metadata
     id="metadata15"><rdf:RDF><cc:Work
         rdf:about=""><dc:format>image/svg+xml</dc:format><dc:type
           rdf:resource="http://purl.org/dc/dcmitype/StillImage" /><dc:title></dc:title></cc:Work></rdf:RDF></metadata><defs
     id="defs13" /><path
     style="fill:#000000"
     d="M 176.61328,0 C 79.228884,0 0,79.23279 0,176.61719 L 0,463.38281 C 0,560.77099 79.228884,640 176.61328,640 l 286.76562,0 C 560.77087,640 640,560.76721 640,463.38281 l 0,-286.76562 C 640.003,79.23279 560.77087,0 463.3789,0 L 176.61328,0 Z m 0,56.7832 286.76562,0 c 66.07751,0 119.83789,53.76023 119.83789,119.83399 l 0,286.76562 0.006,0 c 0,66.07751 -53.76035,119.83398 -119.83789,119.83398 l -286.76953,0 C 110.54016,583.21982 56.783838,529.46032 56.783838,463.38281 l 0,-286.76562 c 0,-66.07376 53.756322,-119.83399 119.830072,-119.83399 z m 315.21483,50.16406 c -10.94036,0 -21.68766,4.42897 -29.41404,12.18945 -7.76427,7.72259 -12.22658,18.47292 -12.22658,29.45117 0,10.94414 4.4661,21.69268 12.22658,29.45314 7.72259,7.72262 18.47368,12.18944 29.41404,12.18944 10.97825,0 21.69075,-4.46682 29.4512,-12.18944 7.76045,-7.76046 12.18942,-18.51278 12.18942,-29.45314 0,-10.97825 -4.42897,-21.72858 -12.18942,-29.45117 -7.7226,-7.76048 -18.47295,-12.18945 -29.4512,-12.18945 z M 320,155.0957 c -90.93373,0 -164.91211,73.97836 -164.91211,164.91211 0,90.92997 73.97838,164.9043 164.91211,164.9043 90.93375,0 164.91211,-73.97433 164.91211,-164.9043 C 484.91211,229.07406 410.93375,155.0957 320,155.0957 Z m 0,56.7793 c 59.62311,0 108.12694,48.50579 108.12694,108.12891 0,59.61932 -48.50762,108.12109 -108.12694,108.12109 -59.6193,0 -108.12694,-48.50177 -108.12694,-108.12109 C 211.87306,260.38079 260.37691,211.875 320,211.875 Z"
     id="path5"
     inkscape:connector-curvature="0" /></svg>